<svg xmlns="http://www.w3.org/2000/svg" viewBox="0 0 1301.17 1301.17"><defs><style>.cls-1{fill:#626363;}.cls-2{fill:#2faadc;}</style></defs><g id="Layer_2" data-name="Layer 2"><g id="Layer_1-2" data-name="Layer 1"><path class="cls-1" d="M1298.54,591.76a647.09,647.09,0,0,0-115.76-315.44C1065.06,109.16,870.56,0,650.58,0S236.1,109.16,118.39,276.32A646.82,646.82,0,0,0,2.63,591.76C.9,611.12,0,630.77,0,650.58a655,655,0,0,0,4.7,78.56,648.39,648.39,0,0,0,140,330.51,651,651,0,0,0,1076.65-96.58,649.6,649.6,0,0,0,79.84-312.49C1301.17,630.77,1300.27,611.12,1298.54,591.76Zm-251.7,255.51v0c.29.14.59.28.88.44Z"/><path class="cls-2" d="M1049.57,473.33a196.28,196.28,0,0,0-85.85-145h0a0,0,0,0,1,0,0,195.64,195.64,0,0,0-109.82-33.52H447.3a195.63,195.63,0,0,0-109.81,33.52,0,0,0,0,1,0,0,196.28,196.28,0,0,0-85.85,145q-.83,8.88-.83,18V809.86A196.54,196.54,0,0,0,447.3,1006.38H853.86a196.68,196.68,0,0,0,193-159.11v0a196.78,196.78,0,0,0,3.56-37.39V491.33Q1050.4,482.23,1049.57,473.33ZM955,809.86A101,101,0,0,1,853.86,911H447.3L446,911a68.17,68.17,0,0,1-28-6.23c-40.46-18.71-54.71-75.5-19.2-111l65.85-65.85a100.41,100.41,0,0,1,71.52-29.63H765a196.68,196.68,0,0,0,139-57.56l51-51.05ZM836.54,573.27A100.45,100.45,0,0,1,765,602.9H536.17a196.52,196.52,0,0,0-139,57.56l-51.07,51.07V491.33A101.15,101.15,0,0,1,447.3,390.17H853.86c1.41,0,2.81,0,4.2.08,30.56,1.24,52.57,21.34,60.92,46.22,7.78,23.26,3.65,50.7-16.55,70.9Z"/></g></g></svg>