<svg xmlns="http://www.w3.org/2000/svg" xmlns:xlink="http://www.w3.org/1999/xlink" width="500" zoomAndPan="magnify" viewBox="0 0 375 374.999991" height="500" preserveAspectRatio="xMidYMid meet" version="1.0"><defs><g/></defs><g fill="#d9d9d9" fill-opacity="1"><g transform="translate(70.5, 307.49998)"><g><path d="M 66 -67.5 L 168 -67.5 L 168 -100.5 L 66 -100.5 C 54.300781 -100.5 45 -109.800781 45 -121.5 L 45 -210 L 12 -210 L 12 -121.5 C 12 -91.199219 35.699219 -67.5 66 -67.5 Z M 33 0 L 168 0 C 198.300781 0 222 -23.699219 222 -54 L 222 -210 L 189 -210 L 189 -54 C 189 -42.300781 179.699219 -33 168 -33 L 33 -33 Z M 33 0 "/></g></g></g><g fill="#d9d9d9" fill-opacity="1"><g transform="translate(70.5, 307.49998)"><g><path d="M 189 0 L 222 0 L 222 -156 C 222 -186.300781 198 -210 167.699219 -210 L 44.699219 -210 L 44.699219 -177 L 167.699219 -177 C 179.398438 -177 189 -167.699219 189 -156 Z M 12 0 L 44.699219 0 L 44.699219 -67.5 L 168 -67.5 L 168 -100.5 L 44.699219 -100.5 L 44.699219 -177 L 12 -177 Z M 12 0 "/></g></g></g><g fill="#d9d9d9" fill-opacity="1"><g transform="translate(70.5, 307.49998)"><g><path d="M 12 -105 L 44.699219 -105 L 44.699219 -210 L 12 -210 Z M 189.300781 0 L 222 0 L 222 -210 L 189.300781 -210 Z M 12 0 L 45 0 L 45 -51 C 45 -62.699219 54.300781 -72 66 -72 L 168 -72 L 168 -105 L 66 -105 C 35.699219 -105 12 -81.300781 12 -51 Z M 12 0 "/></g></g></g><g fill="#d9d9d9" fill-opacity="1"><g transform="translate(79.499999, 307.49998)"><g><path d="M 12 -177 L 204 -177 L 204 -210 L 12 -210 Z M 145.5 0 L 204 0 L 204 -33 L 145.5 -33 C 134.101562 -33 124.5 -42.300781 124.5 -54 L 124.5 -156 L 91.800781 -156 L 91.800781 -54 C 91.800781 -24 115.5 0 145.5 0 Z M 12 0 L 91.5 0 L 91.5 -33 L 12 -33 Z M 12 0 "/></g></g></g><g fill="#d9d9d9" fill-opacity="1"><g transform="translate(70.5, 307.49998)"><g><path d="M 189 0 L 222 0 L 222 -156 C 222 -186.300781 198 -210 167.699219 -210 L 44.699219 -210 L 44.699219 -177 L 167.699219 -177 C 179.398438 -177 189 -167.699219 189 -156 Z M 12 0 L 44.699219 0 L 44.699219 -67.5 L 168 -67.5 L 168 -100.5 L 44.699219 -100.5 L 44.699219 -177 L 12 -177 Z M 12 0 "/></g></g></g></svg>